<svg width="200" height="200" viewBox="0 0 200 200" fill="none" xmlns="http://www.w3.org/2000/svg">
  <defs>
    <linearGradient id="geoGradient" x1="0%" y1="0%" x2="100%" y2="100%">
      <stop offset="0%" style="stop-color:#10B981;stop-opacity:1" />
      <stop offset="100%" style="stop-color:#059669;stop-opacity:1" />
    </linearGradient>
  </defs>

  <!-- Background -->
  <rect width="200" height="200" fill="url(#geoGradient)" opacity="0.1"/>
  <rect x="10" y="10" width="180" height="180" fill="none" stroke="url(#geoGradient)" stroke-width="2" opacity="0.3" rx="20"/>

  <!-- Geological layers -->
  <rect x="20" y="60" width="160" height="15" fill="url(#geoGradient)" opacity="0.3"/>
  <rect x="20" y="80" width="160" height="12" fill="url(#geoGradient)" opacity="0.4"/>
  <rect x="20" y="95" width="160" height="18" fill="url(#geoGradient)" opacity="0.5"/>
  <rect x="20" y="115" width="160" height="10" fill="url(#geoGradient)" opacity="0.3"/>
  <rect x="20" y="130" width="160" height="20" fill="url(#geoGradient)" opacity="0.6"/>

  <!-- Drill/core sample -->
  <rect x="90" y="30" width="20" height="100" fill="#8B5CF6" opacity="0.8"/>
  <rect x="85" y="25" width="30" height="10" fill="#6B46C1" opacity="0.9" rx="2"/>

  <!-- Geological symbols -->
  <circle cx="50" cy="75" r="3" fill="#EF4444" opacity="0.8"/>
  <circle cx="150" cy="105" r="4" fill="#F59E0B" opacity="0.8"/>
  <polygon points="120,85 125,95 115,95" fill="#10B981" opacity="0.8"/>

  <!-- Ground line -->
  <path d="M20 150 Q50 140 80 155 Q110 145 140 160 Q170 150 180 155" stroke="url(#geoGradient)" stroke-width="3" fill="none" opacity="0.7"/>

  <!-- Text -->
  <text x="100" y="185" text-anchor="middle" fill="url(#geoGradient)" font-family="Arial, sans-serif" font-size="14" font-weight="bold">GEOTÉCNICA</text>
</svg>