<svg width="150" height="150" viewBox="0 0 150 150" fill="none" xmlns="http://www.w3.org/2000/svg">
  <defs>
    <linearGradient id="avatarGradient2" x1="0%" y1="0%" x2="100%" y2="100%">
      <stop offset="0%" style="stop-color:#8B5CF6;stop-opacity:1" />
      <stop offset="100%" style="stop-color:#A855F7;stop-opacity:1" />
    </linearGradient>
  </defs>

  <!-- Background circle -->
  <circle cx="75" cy="75" r="70" fill="url(#avatarGradient2)" opacity="0.9"/>
  <circle cx="75" cy="75" r="65" fill="white" opacity="0.95"/>

  <!-- Face -->
  <circle cx="75" cy="65" r="25" fill="#F3F4F6" opacity="0.9"/>
  <circle cx="75" cy="60" r="22" fill="#E5E7EB" opacity="0.8"/>

  <!-- Eyes -->
  <circle cx="68" cy="58" r="3" fill="#374151"/>
  <circle cx="82" cy="58" r="3" fill="#374151"/>
  <circle cx="68.5" cy="57.5" r="1" fill="white"/>
  <circle cx="82.5" cy="57.5" r="1" fill="white"/>

  <!-- Nose -->
  <ellipse cx="75" cy="65" rx="1" ry="2" fill="#9CA3AF"/>

  <!-- Mouth (smiling) -->
  <path d="M68 72 Q75 78 82 72" stroke="#374151" stroke-width="1.5" fill="none" stroke-linecap="round"/>

  <!-- Hair (female style) -->
  <path d="M55 45 Q75 30 95 45 Q95 40 88 35 Q75 32 62 35 Q55 40 55 45" fill="#8B5CF6" opacity="0.8"/>
  <ellipse cx="75" cy="35" rx="15" ry="8" fill="#8B5CF6" opacity="0.9"/>

  <!-- Collar/Shirt -->
  <path d="M50 85 Q75 95 100 85 L100 110 Q75 105 50 110 Z" fill="url(#avatarGradient2)" opacity="0.7"/>
  <rect x="65" y="85" width="20" height="25" fill="url(#avatarGradient2)" opacity="0.8"/>
</svg>